# xmcd
#
# Track frame offsets:
#	150
#	13533
#	24881
#	44999
#	57023
#	72436
#	88026
#	103288
#	124416
#	135115
#	155186
#	164997
#
# Disc length: 2536 seconds
#
# Revision: 1
# Processed by: cddbd v1.5.2PL0 Copyright (c) Steve Scherf et al.
# Submitted via: audiograbber 1.83.01
#
DISCID=ac09e60c
DTITLE=Jon Weisberger - If This Road Could Talk
DYEAR=2008
DGENRE=Country
TTITLE0=At the bottom again
TTITLE1=My turn to laugh
TTITLE2=Long way to Louisiana
TTITLE3=Aim high
TTITLE4=If this roud could talk
TTITLE5=Nothing against Memphis
TTITLE6=Losing again
TTITLE7=The very next hello
TTITLE8=Stepping stone
TTITLE9=Lonely town
TTITLE10=Take a chance on me
TTITLE11=When she's by my side
EXTD=
EXTT0=
EXTT1=
EXTT2=
EXTT3=
EXTT4=
EXTT5=
EXTT6=
EXTT7=
EXTT8=
EXTT9=
EXTT10=
EXTT11=
PLAYORDER=
